<svg version="1.1" viewBox="0.0 0.0 618.002624671916 100.0" fill="none" stroke="none" stroke-linecap="square" stroke-miterlimit="10" xmlns:xlink="http://www.w3.org/1999/xlink" xmlns="http://www.w3.org/2000/svg"><clipPath id="p.0"><path d="m0 0l618.0026 0l0 100.0l-618.0026 0l0 -100.0z" clip-rule="nonzero"/></clipPath><g clip-path="url(#p.0)"><path fill="#000000" fill-opacity="0.0" d="m0 0l618.0026 0l0 100.0l-618.0026 0z" fill-rule="evenodd"/><path fill="#000000" fill-opacity="0.0" d="m-27.931759 -24.409449l682.86615 0l0 124.40945l-682.86615 0z" fill-rule="evenodd"/><path fill="#3c78d8" d="m13.116337 90.18805q-0.484375 1.0625 -0.859375 1.0625q-0.390625 0 -0.390625 -0.96875q0 -5.5625 16.890625 -32.48438q16.90625 -26.937498 22.65625 -33.75q2.5 -7.875 5.671875 -10.265625q0.671875 -0.484375 2.0625 -0.484375q1.390625 0 4.5 1.25q3.1250038 1.25 3.1250038 2.96875q0 0.765625 -0.765625 1.34375q-4.312504 3.65625 -6.718754 13.734373q-2.390625 10.078125 -2.390625 20.546875q0 12.468754 2.875 19.484379q3.9375 -10.171879 18.000004 -33.82813q14.0625 -23.671873 15.6875 -23.671873q0.109375 0 0.875 -0.109375q2.96875 -0.375 2.96875 0.484375q0 0.390625 -0.671875 1.53125q-9.78125 12.78125 -20.34375 29.781248q-10.5625 16.984375 -15.562504 27.921879q1.921875 3.171875 4.515629 4.421875q1.15625 0.5625 2.203125 0.5625q1.0625 0 1.640625 -0.34375q0.578125 -0.328125 0.765625 -0.1875q0.1875 0.15625 0.1875 0.4375q0 0.296875 -0.1875 0.484375q-2.203125 1.625 -4.03125 1.625q-5.765629 0 -9.796879 -5.515625q-4.03125 -5.515625 -6.046875 -13.765629q-2.015625 -8.265625 -2.015625 -15.65625q0 -8.25 1.828125 -16.515623q-10.265625 13.921873 -21.40625 32.125q-11.140625 18.187504 -15.265625 27.781254zm81.59747 -42.718754q-1.046875 -0.859375 -0.859375 -2.484375q0.1875 -1.640625 1.71875 -3.46875q1.546875 -1.828125 4.140625 -1.828125q0.765625 0 1.625 0.734375q0.859375 0.71875 0.671875 2.40625q-0.1875 1.671875 -1.53125 3.15625q-1.34375 1.484375 -3.03125 1.921875q-1.671875 0.421875 -2.734375 -0.4375zm-1.25 5.09375q-3.9375 4.03125 -6.578125 10.21875q-2.640625 6.187504 -2.640625 8.687504q0 2.5 1.96875 2.5q1.96875 0 6.53125 -2.875q4.5625 -2.890625 10.421875 -8.171879q1.25 -1.140625 1.25 0.296875q0 0.1875 -0.203125 0.375q-4.609375 4.031254 -7.78125 6.625004q-3.15625 2.59375 -7.53125 4.953125q-4.359375 2.34375 -7.140625 2.34375q-3.46875 0 -5.15625 -1.53125q-1.671875 -1.53125 -1.671875 -3.359375q0 -3.453125 1.25 -5.46875q1.25 -2.015625 4.234375 -5.578129q-1.0625 0.875 -3.328125 2.8906288q-2.25 2.015625 -3.109375 2.6875q-0.859375 0.671875 -0.859375 -0.390625q0 -0.671875 1.53125 -1.921875q1.53125 -1.2500038 6.671875 -6.328129q5.140625 -5.09375 7.0 -6.046875q1.875 -0.96875 3.078125 -0.96875q1.203125 0 1.78125 0.34375q0.578125 0.328125 0.28125 0.71875zm35.8151 1.4375q0 -1.828125 -1.9218674 -1.828125q-1.640625 0 -5.046875 1.5q-3.40625 1.484375 -7.625 6.375q-5.09375 6.046879 -5.09375 10.750004q0 3.546875 2.6875 4.796875q0.875 0.390625 2.015625 0.390625q3.9375 0 9.265625 -3.359375q5.3281174 -3.359375 13.781242 -11.140629q1.34375 -1.34375 1.34375 0q0 0.578125 -0.578125 1.0625q-11.718742 10.750004 -17.234367 13.296879q-5.515625 2.53125 -8.6875 2.53125q-11.140625 0 -11.140625 -8.15625q0 -8.156254 7.34375 -14.062504q7.34375 -5.90625 15.3125 -5.90625q4.9999924 0 6.7187424 2.3125q1.0625 1.140625 1.0625 2.4375q0 1.296875 -0.671875 2.703125q-0.671875 1.390625 -2.15625 1.390625q-1.4843674 0 -0.4375 -1.875q1.0625 -1.875 1.0625 -3.21875zm31.394485 -0.671875q0 -1.25 -1.828125 -1.25q-3.265625 0 -7.96875 4.609375q-1.15625 1.15625 -4.1875 4.8125q-3.015625 3.6406288 -5.890625 8.343754l-2.40625 5.28125l0.296875 -0.96875q-0.203125 0.390625 -0.390625 1.15625l0 0q-0.484375 1.15625 -2.78125 1.921875q-0.484375 0.1875 -0.859375 0.1875q-0.96875 0 -0.203125 -1.4375q0.390625 -0.96875 2.6875 -6.859375q2.3125 -5.906254 3.75 -9.468754q-3.75 4.140625 -7.015625 6.718754q-0.953125 0.78125 -1.34375 0.203125q-0.09375 -0.09375 -0.09375 -0.375q0 -0.296875 0.875 -1.0625q5.84375 -5.093754 9.203125 -9.421879q2.5 -5.84375 9.171875 -16.265625q6.671875 -10.421873 13.6875 -17.234373q4.703125 -4.703125 10.171875 -6.328125q2.5 -0.765625 4.65625 -0.765625q2.15625 0 4.03125 1.203125q1.875 1.1875 1.875 4.453125q0 4.328125 -2.890625 8.75q-2.875 4.406248 -10.171875 9.828123q-7.296875 5.421875 -13.53125 8.109375q-1.15625 0.484375 -1.34375 -0.140625q-0.1875 -0.625 0.953125 -1.109375q5.578125 -2.5 12.53125 -7.875q6.96875 -5.375 9.3125 -9.156248q2.359375 -3.796875 2.359375 -6.140625q0 -2.359375 -2.015625 -2.359375q-2.3125 0 -7.296875 3.84375q-7.390625 5.953125 -15.515625 16.609373q-8.109375 10.65625 -13.96875 21.5q2.6875 -3.84375 4.90625 -6.34375q5.375 -6.046875 10.453125 -6.046875q4.8125 0 5.671875 4.234375q0.09375 0.5625 0.09375 1.625q0 1.0625 -0.71875 3.125q-0.71875 2.0625 -4.03125 7.578129q-3.3125 5.515625 -3.3125 6.671875q0 1.15625 0.765625 1.15625q1.0625 0 3.171875 -1.34375q5.375 -3.359375 14.015625 -11.328129q1.15625 -1.15625 1.109375 -0.390625q-0.046875 0.765625 -0.625 1.4375q-7.109375 7.296879 -14.6875 12.203129q-3.5625 2.296875 -6.4375 2.296875q-0.765625 0 -1.4375 -0.1875q-3.75 -0.765625 -3.75 -4.171875q0 -3.421875 2.6875 -7.640625q0.484375 -0.671875 3.5625 -4.515629q4.703125 -5.75 4.703125 -7.671875zm28.980362 21.796879q-6.421875 3.25 -11.234375 3.25q-4.03125 0 -5.46875 -2.6875q-0.765625 -1.34375 -0.765625 -3.0625q0 -3.9375 1.828125 -7.6875q-1.25 1.25 -2.40625 2.015625q-0.953125 0.875 -0.953125 -0.1875q0 -0.671875 1.6875 -2.109375q1.671875 -1.4375038 5.125 -4.843754q3.453125 -3.421875 5.46875 -5.140625q5.859375 -4.890625 12.390625 -4.890625q2.390625 0 4.890625 1.234375q3.65625 1.734375 3.65625 6.34375q0 5.5625 -5.578125 11.421879q-2.203125 2.5 -6.140625 5.0q7.875 -1.25 16.703125 -9.515625q0.484375 -0.3750038 0.859375 -0.3281288q0.390625 0.046875 0.390625 0.4375038q0 0.375 -0.390625 0.765625q-10.546875 9.984375 -19.671875 9.984375q-0.1875 0 -0.390625 0zm9.3125 -10.09375q2.40625 -3.6406288 2.40625 -6.187504q0 -2.546875 -2.203125 -3.890625q-1.25 -1.046875 -2.890625 -1.046875q-5.859375 0 -10.796875 4.609375q-4.9375 4.609375 -6.578125 9.781254q-0.671875 1.828125 -0.671875 3.796875q0 1.96875 1.484375 2.78125q1.5 0.8125 3.3125 0.8125q1.828125 0 5.28125 -1.8125q-0.1875 0 -0.578125 -0.203125q-1.140625 -0.5625 -1.140625 -1.53125q0 -3.359375 3.734375 -6.8125q2.6875 -2.4062538 5.46875 -2.4062538q2.796875 0 3.171875 2.1093788zm16.807983 7.78125q0 2.59375 2.59375 2.59375q1.53125 0 4.84375 -1.25q3.3125 -1.25 8.593735 -5.46875q5.28125 -4.21875 7.09375 -6.093754q1.828125 -1.875 2.203125 -1.828125q0.390625 0.046875 0.296875 0.578125q-0.09375 0.53125 -0.46875 0.90625q-8.171875 8.359379 -13.54686 12.015629q-5.375 3.640625 -9.984375 3.640625q-3.9375 0 -5.46875 -1.828125q-1.53125 -1.828125 -1.53125 -4.21875q0 -4.328125 3.0625 -10.375004q-5.5625 5.953129 -5.5625 3.8437538q0 -0.390625 0.578125 -0.859375q4.515625 -3.6562538 9.6875 -10.562504q9.515625 -12.390625 14.89061 -21.796875q0.953125 -1.8281231 0.953125 -2.687498q0 -2.015625 -2.203125 -0.765625q-2.5 1.25 -2.6875 0.96875q-0.1875 -0.296875 0.28125 -0.78125q2.3125 -1.71875 6.34375 -3.25q4.03125 -1.546875 6.625 -1.640625q4.03125 0 4.03125 2.5q0 1.4375 -1.390625 3.84375q-1.390625 2.390623 -7.96875 9.546873q-6.578125 7.140625 -8.015625 8.96875q-9.89061 12.96875 -12.57811 20.640629q-0.671875 2.015625 -0.671875 3.359375zm56.23961 -10.843754q-1.046875 1.25 -2.15625 2.6875038q-1.09375 1.4375 -2.78125 3.9375q-1.671875 2.5 -1.671875 4.234375q0 1.71875 1.484375 1.71875q1.484375 0 4.84375 -1.828125q6.71875 -3.84375 14.890625 -11.515629q0.953125 -0.96875 1.25 -0.296875q0 0.09375 0 0.390625q0 0.28125 -0.390625 0.671875q-16.515625 15.546879 -24.0 15.546879q-2.203125 0 -3.703125 -1.484375q-1.484375 -1.484375 -1.484375 -3.5q0 -2.015625 1.734375 -6.15625q-4.328125 5.390625 -9.265625 8.3125q-4.9375 2.921875 -7.734375 2.921875q-2.78125 0 -4.75 -1.671875q-1.96875 -1.6875 -1.96875 -4.171875q0 -7.109375 6.34375 -13.921879q4.796875 -5.09375 11.90625 -7.203125q3.15625 -1.0625 6.171875 -1.0625q3.03125 0 5.859375 1.6875q2.84375 1.671875 3.609375 3.984375q2.875 0 4.125 2.109375q0.203125 0.28125 0.203125 0.953125q0 0.671875 -0.734375 1.546875q-0.71875 0.859375 -1.78125 2.109375zm-7.0 -9.5q-2.015625 0 -4.796875 1.234375q-4.890625 2.125 -9.3125 7.296875q-7.0 8.265629 -7.0 12.109379q0 2.015625 1.625 2.015625q1.34375 0 4.453125 -1.734375q3.125 -1.734375 8.21875 -6.8125q0.296875 -0.296875 2.203125 -2.109375q1.921875 -1.8281288 3.265625 -3.1718788q4.515625 -4.703125 4.515625 -6.765625q0 -2.0625 -3.171875 -2.0625zm12.490723 19.000004q-0.09375 -0.09375 -0.09375 -0.28125q0 -0.203125 0.34375 -0.203125q0.328125 0 0.421875 0.390625q1.71875 3.84375 5.65625 3.84375q4.890625 0 8.546875 -4.8125q2.6875 -3.546875 4.75 -7.421879q2.0625 -3.890625 3.453125 -6.1875q1.390625 -2.3125 4.3125 -5.1875q2.9375 -2.890625 5.34375 -3.5625q-0.578125 -0.28125 -1.921875 -0.28125q-1.34375 0 -5.046875 1.96875q-3.6875 1.953125 -7.34375 4.984375q-3.640625 3.015625 -7.875 6.859375q-4.21875 3.8437538 -5.078125 4.515629q-0.859375 0.671875 -1.046875 0q-0.203125 -0.671875 0.46875 -1.25q2.5 -2.1093788 7.203125 -6.562504q4.703125 -4.46875 7.140625 -6.53125q2.453125 -2.078125 5.515625 -3.5625q3.078125 -1.484375 4.625 -1.484375q3.828125 0 4.703125 1.34375q-2.5 1.0625 -4.09375 5.578125q-1.578125 4.5 -3.546875 10.453129q-1.96875 5.953125 -4.9375 9.3125q2.5 -0.953125 7.71875 -4.453125q5.234375 -3.515625 9.265625 -7.640629q0.875 -0.765625 1.25 -0.1875q0 0.1875 0 0.4375q0 0.234375 -1.828125 2.0625q-1.8125 1.8125038 -4.453125 4.078129q-2.640625 2.25 -6.578125 5.03125q-8.15625 5.765625 -16.375 5.765625q-8.203125 0 -10.5 -7.015625zm95.71335 -27.750004q3.546875 -0.375 7.484375 -0.375q3.9375 0 8.875 1.0625q4.953125 1.046875 7.640625 3.921875q2.96875 3.078125 2.96875 6.96875q0 3.890625 -2.109375 7.734375q-2.109375 3.8281288 -6.4375 7.765629q-12.671875 11.515625 -32.25 11.515625q-5.28125 0 -9.359375 -1.109375q-4.078125 -1.09375 -5.328125 -1.90625q-1.25 -0.8125 -3.03125 -2.265625q-1.765625 -1.4375 -0.8125 -1.4375q0.484375 0 2.875 0.875q2.40625 0.859375 8.890625 0.859375q6.484375 0 13.875 -1.484375q7.390625 -1.5 12.671875 -4.46875q5.28125 -2.984375 8.34375 -6.71875q3.75 -4.515629 3.75 -9.125004q0 -2.5 -1.34375 -5.078125q-1.34375 -2.59375 -5.375 -3.984375q-4.03125 -1.40625 -7.203125 -1.40625q-3.171875 0 -7.25 0.390625q-4.078125 0.390625 -10.421875 2.59375q-6.328125 2.203125 -8.4375 5.28125q-2.109375 3.0625 -3.65625 5.703125q-1.53125 2.640625 -3.078125 5.625004q-1.53125 2.96875 -2.390625 4.515625q-0.578125 1.34375 -1.390625 1.34375q-0.8125 0 -0.8125 -0.671875q0 -3.171875 7.4375 -14.640629q7.4375 -11.484375 14.25 -20.359375q6.828125 -8.874998 7.96875 -8.874998q0.578125 0 0.953125 0.53125q0.390625 0.515625 0.296875 1.09375q-12.0 15.078123 -14.390625 18.140623q35.125 -5.84375 42.71875 -16.796873q1.140625 -1.8125 1.140625 -3.4375q0 -1.640625 -1.53125 -3.09375q-3.078125 -2.78125 -11.484375 -2.78125q-8.390625 0 -22.078125 3.890625q-13.671875 3.890625 -19.046875 8.499998q-1.625 1.25 -1.15625 2.0625q0.484375 0.8125 0.1875 0.921875q-0.28125 0.09375 -0.75 -0.296875q-2.03125 -1.15625 -2.609375 -2.921873q-0.5625 -1.78125 -0.5625 -2.59375q0 -0.828125 0.46875 -1.296875q4.140625 -5.953125 19.15625 -10.609375q15.03125 -4.65625 23.0 -4.65625q15.9375 0 20.0625 5.46875q1.625 2.109375 1.625 4.515625q0 3.734375 -4.21875 7.765625q-9.796875 9.124998 -28.125 13.343748zm43.571716 31.406254q-6.421875 3.25 -11.234375 3.25q-4.03125 0 -5.46875 -2.6875q-0.765625 -1.34375 -0.765625 -3.0625q0 -3.9375 1.828125 -7.6875q-1.25 1.25 -2.40625 2.015625q-0.953125 0.875 -0.953125 -0.1875q0 -0.671875 1.6875 -2.109375q1.671875 -1.4375038 5.125 -4.843754q3.453125 -3.421875 5.46875 -5.140625q5.859375 -4.890625 12.390625 -4.890625q2.390625 0 4.890625 1.234375q3.65625 1.734375 3.65625 6.34375q0 5.5625 -5.578125 11.421879q-2.203125 2.5 -6.140625 5.0q7.875 -1.25 16.703125 -9.515625q0.484375 -0.3750038 0.859375 -0.3281288q0.390625 0.046875 0.390625 0.4375038q0 0.375 -0.390625 0.765625q-10.546875 9.984375 -19.671875 9.984375q-0.1875 0 -0.390625 0zm9.3125 -10.09375q2.40625 -3.6406288 2.40625 -6.187504q0 -2.546875 -2.203125 -3.890625q-1.25 -1.046875 -2.890625 -1.046875q-5.859375 0 -10.796875 4.609375q-4.9375 4.609375 -6.578125 9.781254q-0.671875 1.828125 -0.671875 3.796875q0 1.96875 1.484375 2.78125q1.5 0.8125 3.3125 0.8125q1.828125 0 5.28125 -1.8125q-0.1875 0 -0.578125 -0.203125q-1.140625 -0.5625 -1.140625 -1.53125q0 -3.359375 3.734375 -6.8125q2.6875 -2.4062538 5.46875 -2.4062538q2.796875 0 3.171875 2.1093788zm35.245483 -9.781254q1.34375 -1.546875 1.34375 -2.40625q0 -0.859375 -1.78125 -0.859375q-1.78125 0 -5.609375 3.359375q-3.5625 3.0625 -8.609375 10.265629q-5.03125 7.203125 -7.296875 9.75q-2.25 2.546875 -3.96875 2.546875q-0.203125 0 -0.390625 0q-2.5 0 -4.890625 -2.015625q0.578125 -0.875 2.78125 -3.75q4.890625 -5.953125 8.546875 -11.515629q-4.125 4.125004 -7.015625 6.421879q-0.953125 0.78125 -1.09375 0.109375q-0.15625 -0.671875 0.421875 -1.203125q0.578125 -0.53125 1.921875 -1.734375q1.34375 -1.2031288 1.765625 -1.5781288q0.4375 -0.390625 1.640625 -1.484375q1.203125 -1.109375 1.78125 -1.78125q2.6875 -3.171875 3.9375 -5.375q0.484375 -1.15625 0.421875 -2.25q-0.046875 -1.109375 -0.484375 -1.4375q-0.421875 -0.34375 -0.328125 -0.828125q0 -0.765625 0.765625 -0.765625q0.390625 0 0.875 0.1875q2.96875 1.34375 2.96875 5.328125q0 3.984375 -1.71875 8.5q3.734375 -4.890625 5.65625 -7.015625q5.0 -5.5625 9.796875 -5.5625q4.703125 0 5.5625 4.03125q0.09375 0.578125 0.09375 1.78125q0 1.203125 -0.90625 3.21875q-0.90625 2.015625 -4.28125 6.625004q-3.359375 4.59375 -3.890625 5.796875q-0.515625 1.203125 -0.328125 1.78125q0.1875 0.578125 0.859375 0.671875q1.15625 0.1875 3.9375 -1.53125q3.9375 -2.796875 10.1875 -8.546879q1.046875 -1.0625 1.046875 0.18750381q0 0.484375 -0.484375 0.96875q-9.3125 8.640625 -13.8125 10.75q-5.28125 2.6875 -8.265625 0.859375q-1.8125 -1.15625 -1.8125 -3.21875q0 -2.0625 0.765625 -4.171875q1.71875 -4.890625 9.890625 -14.109379zm38.58963 -1.921875q0 -1.25 -1.828125 -1.25q-3.265625 0 -7.96875 4.609375q-1.15625 1.15625 -4.1875 4.8125q-3.015625 3.6406288 -5.890625 8.343754l-2.40625 5.28125l0.296875 -0.96875q-0.203125 0.390625 -0.390625 1.15625l0 0q-0.484375 1.15625 -2.78125 1.921875q-0.484375 0.1875 -0.859375 0.1875q-0.96875 0 -0.203125 -1.4375q0.390625 -0.96875 2.6875 -6.859375q2.3125 -5.906254 3.75 -9.468754q-3.75 4.140625 -7.015625 6.718754q-0.953125 0.78125 -1.34375 0.203125q-0.09375 -0.09375 -0.09375 -0.375q0 -0.296875 0.875 -1.0625q5.84375 -5.093754 9.203125 -9.421879q2.5 -5.84375 9.171875 -16.265625q6.671875 -10.421873 13.6875 -17.234373q4.703125 -4.703125 10.171875 -6.328125q2.5 -0.765625 4.65625 -0.765625q2.15625 0 4.03125 1.203125q1.875 1.1875 1.875 4.453125q0 4.328125 -2.890625 8.75q-2.875 4.406248 -10.171875 9.828123q-7.296875 5.421875 -13.53125 8.109375q-1.15625 0.484375 -1.34375 -0.140625q-0.1875 -0.625 0.953125 -1.109375q5.578125 -2.5 12.53125 -7.875q6.96875 -5.375 9.3125 -9.156248q2.359375 -3.796875 2.359375 -6.140625q0 -2.359375 -2.015625 -2.359375q-2.3125 0 -7.296875 3.84375q-7.390625 5.953125 -15.515625 16.609373q-8.109375 10.65625 -13.96875 21.5q2.6875 -3.84375 4.90625 -6.34375q5.375 -6.046875 10.453125 -6.046875q4.8125 0 5.671875 4.234375q0.09375 0.5625 0.09375 1.625q0 1.0625 -0.71875 3.125q-0.71875 2.0625 -4.03125 7.578129q-3.3125 5.515625 -3.3125 6.671875q0 1.15625 0.765625 1.15625q1.0625 0 3.171875 -1.34375q5.375 -3.359375 14.015625 -11.328129q1.15625 -1.15625 1.109375 -0.390625q-0.046875 0.765625 -0.625 1.4375q-7.109375 7.296879 -14.6875 12.203129q-3.5625 2.296875 -6.4375 2.296875q-0.765625 0 -1.4375 -0.1875q-3.75 -0.765625 -3.75 -4.171875q0 -3.421875 2.6875 -7.640625q0.484375 -0.671875 3.5625 -4.515629q4.703125 -5.75 4.703125 -7.671875zm47.30847 8.640625q-1.046875 1.25 -2.15625 2.6875038q-1.09375 1.4375 -2.78125 3.9375q-1.671875 2.5 -1.671875 4.234375q0 1.71875 1.484375 1.71875q1.484375 0 4.84375 -1.828125q6.71875 -3.84375 14.890625 -11.515629q0.953125 -0.96875 1.25 -0.296875q0 0.09375 0 0.390625q0 0.28125 -0.390625 0.671875q-16.515625 15.546879 -24.0 15.546879q-2.203125 0 -3.703125 -1.484375q-1.484375 -1.484375 -1.484375 -3.5q0 -2.015625 1.734375 -6.15625q-4.328125 5.390625 -9.265625 8.3125q-4.9375 2.921875 -7.734375 2.921875q-2.78125 0 -4.75 -1.671875q-1.96875 -1.6875 -1.96875 -4.171875q0 -7.109375 6.34375 -13.921879q4.796875 -5.09375 11.90625 -7.203125q3.15625 -1.0625 6.171875 -1.0625q3.03125 0 5.859375 1.6875q2.84375 1.671875 3.609375 3.984375q2.875 0 4.125 2.109375q0.203125 0.28125 0.203125 0.953125q0 0.671875 -0.734375 1.546875q-0.71875 0.859375 -1.78125 2.109375zm-7.0 -9.5q-2.015625 0 -4.796875 1.234375q-4.890625 2.125 -9.3125 7.296875q-7.0 8.265629 -7.0 12.109379q0 2.015625 1.625 2.015625q1.34375 0 4.453125 -1.734375q3.125 -1.734375 8.21875 -6.8125q0.296875 -0.296875 2.203125 -2.109375q1.921875 -1.8281288 3.265625 -3.1718788q4.515625 -4.703125 4.515625 -6.765625q0 -2.0625 -3.171875 -2.0625zm62.693848 2.875q0 3.546875 -6.046875 11.703129q-3.640625 4.90625 -3.640625 6.0625q0 1.140625 1.1875 1.140625q1.203125 0 3.40625 -1.4375q5.484375 -3.75 10.953125 -9.015629q0.765625 -0.78125 1.046875 -0.390625q0.296875 0.390625 0.296875 0.578125q0 0.18750381 -2.109375 2.2031288q-2.109375 2.015625 -4.65625 4.234375q-2.546875 2.203125 -6.390625 4.5625q-3.84375 2.34375 -6.328125 2.34375q-5.1875 0 -5.1875 -4.609375q0 -1.625 0.578125 -3.84375q1.25 -3.734375 10.84375 -14.500004q1.25 -1.34375 1.25 -2.109375q0 -0.765625 -1.921875 -0.765625q-1.921875 0 -6.046875 3.359375q-1.4375 1.15625 -3.5625 3.421875q-2.109375 2.25 -4.9375 7.250004q-2.828125 4.984375 -4.171875 8.8125q-0.578125 1.734375 -2.3125 1.734375q-0.375 0 -0.953125 -0.09375q-1.828125 -0.484375 -1.4375 -1.734375q7.484375 -13.343754 8.921875 -16.703129q1.4375 -3.359375 1.4375 -4.796875q0 -1.4375 -1.140625 -1.4375q-5.09375 0 -14.59375 16.609379q-3.453125 5.375 -5.578125 7.6875q-2.109375 2.296875 -3.828125 2.296875q-0.203125 0 -0.390625 0q-2.5 0 -4.890625 -2.015625q0.578125 -0.875 2.78125 -3.75q4.890625 -5.953125 8.546875 -11.515629q-4.125 4.125004 -7.015625 6.421879q-0.953125 0.78125 -1.09375 0.109375q-0.15625 -0.671875 0.421875 -1.203125q0.578125 -0.53125 1.921875 -1.734375q1.34375 -1.2031288 1.765625 -1.5781288q0.4375 -0.390625 1.640625 -1.484375q1.203125 -1.109375 1.78125 -1.78125q2.6875 -3.171875 3.9375 -5.375q0.484375 -1.15625 0.421875 -2.25q-0.046875 -1.109375 -0.484375 -1.4375q-0.421875 -0.34375 -0.328125 -0.828125q0 -0.765625 0.765625 -0.765625q0.390625 0 0.875 0.1875q2.96875 1.34375 2.96875 5.859375q0 2.6875 -1.046875 5.859375q1.90625 -2.984375 4.125 -5.859375q3.9375 -5.09375 7.875 -5.09375q2.6875 0 2.6875 3.078125q0 2.875 -4.03125 10.265625q4.03125 -5.171875 6.234375 -7.578125q5.09375 -5.28125 9.796875 -5.28125q4.984375 0 5.65625 4.328125q0 0.46875 0 0.859375z" fill-rule="nonzero"/></g></svg>